<svg viewBox="-0.5 -0.5 16 16" fill="none" xmlns="http://www.w3.org/2000/svg" id="Peerlist--Streamline-Iconoir" height="16" width="16"><desc>Peerlist Streamline Icon: https://streamlinehq.com</desc><path d="M5.234 0.98375h4.532c2.2135625 0 4.073125 1.6644375 4.3175625 3.8644374999999997l0.15256250000000002 1.3725c0.0945 0.8502500000000001 0.0945 1.708375 0 2.558625l-0.15256250000000002 1.3725c-0.2444375 2.2000625 -2.104 3.8644374999999997 -4.3175625 3.8644374999999997H5.234c-2.213625 0 -4.0731875 -1.664375 -4.317625 -3.8644374999999997l-0.1525 -1.3725c-0.09443750000000001 -0.8502500000000001 -0.09443750000000001 -1.708375 0 -2.558625l0.1525 -1.3725c0.2444375 -2.2 2.104 -3.8644374999999997 4.317625 -3.8644374999999997Z" stroke="#ffdb70" stroke-linecap="round" stroke-linejoin="round" stroke-width="1"></path><path d="M5.327937499999999 11.120125000000002v-2.896125m0 0V3.8798749999999997h2.8960625c1.199625 0 2.172125 0.9724375000000001 2.172125 2.1720625h0c0 1.199625 -0.9724375000000001 2.1720625 -2.172125 2.1720625H5.327937499999999Z" stroke="#ffdb70" stroke-linecap="round" stroke-linejoin="round" stroke-width="1"></path></svg>